<svg version="1.1" id="Layer_1" xmlns="http://www.w3.org/2000/svg" x="0" y="0" viewBox="0 0 50 50" xml:space="preserve"><style>.st0{fill:#464646;opacity:.5}</style><path class="st0" d="M35.5 12c1.4 0 2.5 1.1 2.5 2.5v21c0 1.4-1.1 2.5-2.5 2.5h-21c-1.4 0-2.5-1.1-2.5-2.5v-21c0-1.4 1.1-2.5 2.5-2.5h21m0-2h-21C12 10 10 12 10 14.5v21c0 2.5 2 4.5 4.5 4.5h21c2.5 0 4.5-2 4.5-4.5v-21c0-2.5-2-4.5-4.5-4.5z"/><path class="st0" d="M26 20.9c0-1.1.9-.9.9-.9h2.8v-3.2h-4.3c-3.2 0-3.3 3.5-3.3 3.5v2.4h-1.8v2.9h1.8v8.8H26v-8.8h3.2l.5-2.9H26v-1.8z"/></svg>