<svg version="1.1" id="Layer_1" xmlns="http://www.w3.org/2000/svg" x="0" y="0" viewBox="0 0 50 50" xml:space="preserve"><style>.st1{fill:#fff}</style><radialGradient id="SVGID_1_" cx="14.5" cy="38.667" r="50.072" fx="2.95" fy="38.931" gradientUnits="userSpaceOnUse"><stop offset="0" stop-color="#fadc25"/><stop offset=".181" stop-color="#faa425"/><stop offset=".527" stop-color="#d9546a"/><stop offset=".719" stop-color="#c34298"/><stop offset="1" stop-color="#49499e"/></radialGradient><path d="M45.5 50h-41C2 50 0 48 0 45.5v-41C0 2 2 0 4.5 0h41C48 0 50 2 50 4.5v41c0 2.5-2 4.5-4.5 4.5z" fill="url(#SVGID_1_)"/><path class="st1" d="M32.1 37.7H17.9c-3 0-5.3-2.3-5.3-5.2V17.9c0-2.9 2.4-5.2 5.3-5.2h14.2c2.9 0 5.3 2.3 5.3 5.2v14.6c0 2.9-2.4 5.2-5.3 5.2zM17.9 14.9c-1.8 0-3.2 1.3-3.2 3.1v14.6c0 1.7 1.4 3.1 3.2 3.1h14.2c1.8 0 3.2-1.3 3.2-3.1V17.9c0-1.7-1.4-3.1-3.2-3.1H17.9v.1z"/><path class="st1" d="M25 31.7c-3.5 0-6.5-2.9-6.5-6.5 0-3.5 2.9-6.5 6.5-6.5 3.5 0 6.5 2.9 6.5 6.5s-3 6.5-6.5 6.5zm0-10.8c-2.4 0-4.3 2-4.3 4.3 0 2.4 2 4.3 4.3 4.3 2.4 0 4.3-2 4.3-4.3s-1.9-4.3-4.3-4.3zM33.5 18.4c0 .9-.7 1.6-1.6 1.6-.9 0-1.6-.7-1.6-1.6 0-.9.7-1.6 1.6-1.6.9.1 1.6.7 1.6 1.6z"/></svg>