<svg version="1.1" id="Layer_1" xmlns="http://www.w3.org/2000/svg" x="0" y="0" viewBox="0 0 50 50" xml:space="preserve"><style>.st0{fill:none;stroke:#a3a3a3;stroke-width:2;stroke-linejoin:round;stroke-miterlimit:10}</style><path class="st0" d="M18.1 45.8C8.9 42.8 2.2 34.2 2.2 24c0-3.3.7-6.4 1.9-9.2.1.6.3 1.1.5 1.7 1.5 3.4 5 7 9.1 10.6-.1 5.1.3 8.9 1 11.9.6 2.2 1.7 4.8 3.4 6.8zM37.8 5c-2.5.3-5.4 1.4-8.3 3.1-3.7 2.2-7.4 5.3-10.4 8.5-4.3-3.6-7.6-6.6-7.6-11C15.3 2.8 20 1.1 25 1.1c4.8 0 9.2 1.5 12.8 3.9zM47.9 24c0 10.6-7.2 19.5-17 22.1-2.2-1-3.4-2.9-4-5.2-1.2-4.2-1.2-10.2-1.1-14.5 2.3-2.7 5-5.3 8.2-7.9 1.8-1.4 3.4-2.9 5.9-3.8 1.6-.6 3.4-1.1 5.4-1.3 1.7 3.2 2.6 6.8 2.6 10.6z"/><path class="st0" d="M45.4 13.4s-.1 0 0 0c-2.2.3-3.9.8-5.5 1.4-2.5.9-4.1 2.4-5.9 3.8-3.2 2.6-6 5.2-8.2 7.9-.1 4.3-.1 10.3 1.1 14.5.6 2.3 1.8 4.1 4 5.2 0 0 .1 0 .1.1-3.6 3.7-7.8 3.3-10.7 1.6-.8-.5-1.6-1.2-2.3-2-1.7-2-2.8-4.6-3.4-6.9-.8-3-1.1-6.8-1-11.9-4-3.6-7.6-7.2-9.1-10.6-.2-.5-.4-1.1-.5-1.7-.6-3 .3-6.4 2.7-8.3 1.1-.8 2.6-1.4 4.7-1.4v.5c0 4.4 3.3 7.3 7.6 11 2.9-3.2 6.7-6.3 10.4-8.5 2.9-1.7 5.8-2.8 8.2-3h.1c2.5-.2 5.1.6 6.7 2.6 1.2 1.2 1.8 3.1 1 5.7z"/></svg>