<svg version="1.1" id="Layer_1" xmlns="http://www.w3.org/2000/svg" x="0" y="0" viewBox="0 0 50 50" xml:space="preserve"><style>.st1{fill:none;stroke:#a3a3a3;stroke-width:2;stroke-linejoin:round;stroke-miterlimit:10}</style><circle cx="25" cy="25.1" r="6.5" fill="none" stroke="#a3a3a3" stroke-width="2" stroke-linejoin="round"/><path class="st1" d="M46.4 14.5C40.6 2.7 26.3-2.1 14.5 3.7c-3.7 1.8-6.8 4.6-9.1 8L15 28.3c-1.8-5.6 1.4-11.6 7-13.4 1-.3 2-.5 3-.5"/><path class="st1" d="M5.3 11.7C-2 22.7.9 37.5 11.8 44.8c3.4 2.3 7.3 3.6 11.4 4l10-17c-3.7 4.5-10.5 5.2-15 1.4-1.5-1.3-2.7-3-3.3-4.8"/><path class="st1" d="M23.2 48.8c13.1 1 24.6-8.9 25.6-22 .3-4.2-.5-8.5-2.4-12.3H24.9c5.9 0 10.6 4.8 10.6 10.7 0 2.4-.8 4.7-2.3 6.6"/></svg>