<svg version="1.1" id="Layer_1" xmlns="http://www.w3.org/2000/svg" x="0" y="0" viewBox="0 0 50 50" xml:space="preserve"><style>.st0{fill:none;stroke:#a3a3a3;stroke-width:2;stroke-miterlimit:10}</style><path class="st0" d="M25.1 1.2C11.9 1.2 1.2 11.9 1.2 25.1c0 12.8 10 23.3 22.8 23.9h1.1c5.9 0 11.5-2.1 15.9-6.1-2.8 1.9-6.1 2.9-9.6 2.9-5.7 0-10.8-2.8-14.2-7.3-2.7-3.1-4.4-7.7-4.5-12.9v-1.1c.1-5.2 1.8-9.8 4.5-12.9 3.4-4.5 8.5-7.3 14.2-7.3 3.4 0 6.7 1 9.6 2.9-4.4-3.8-10-6-15.9-6z"/><path class="st0" d="M17.2 11.7c2.2-2.6 5-4.1 8.1-4.1 6.9 0 12.6 7.9 12.6 17.6 0 9.7-5.7 17.6-12.6 17.6-3.1 0-5.9-1.6-8.1-4.1 3.4 4.5 8.5 7.3 14.2 7.3 3.4 0 6.7-1 9.5-2.9 5.1-4.5 8-11 8-17.8 0-6.8-2.9-13.3-8-17.8-2.8-1.9-6.2-2.8-9.5-2.9-5.7-.2-10.8 2.6-14.2 7.1"/></svg>