<svg xmlns="http://www.w3.org/2000/svg" xmlns:xlink="http://www.w3.org/1999/xlink" width="0" height="0" style="position:absolute">
	
		<symbol id="lock" viewBox="0 0 13 18">
			<defs><path id="lock-a" d="M0 0h13v18H0z"></path></defs><clipPath id="lock-b"><use xlink:href="#a" overflow="visible"></use></clipPath><path d="M10.77 8A1.23 1.23 0 0 1 12 9.229v6.542A1.23 1.23 0 0 1 10.77 17H2.23a1.231 1.231 0 0 1-1.23-1.229V9.229A1.23 1.23 0 0 1 2.23 8h8.541m0-1H2.23a2.23 2.23 0 0 0-2.23 2.229v6.542A2.23 2.23 0 0 0 2.23 18h8.541A2.23 2.23 0 0 0 13 15.771V9.229A2.23 2.23 0 0 0 10.77 7" clip-path="url(#b)"></path><path d="M6.5 1C8.43 1 10 2.57 10 4.5V7H3V4.5C3 2.57 4.57 1 6.5 1m0-1A4.5 4.5 0 0 0 2 4.5V8h9V4.5A4.5 4.5 0 0 0 6.5 0" clip-path="url(#b)"></path><path d="M6.5 14.5a1 1 0 0 1-1-1v-2a1 1 0 1 1 2 0v2a1 1 0 0 1-1 1z" clip-path="url(#b)" fill="none" stroke="#8f8f8f" stroke-miterlimit="10"></path>
		</symbol>
	
		<symbol id="logo" viewBox="0 0 348.86133 88.83234">
			<path d="M222.066 7.266h-24.042v74.065h6.578v-29.39h17.464c1.544 0 2.815-.496 3.81-1.49.992-.994 1.49-2.263 1.49-3.81V12.52c0-1.546-.498-2.808-1.49-3.786-.995-.978-2.266-1.467-3.81-1.467zm-1.278 38.807h-16.186V13.087h16.186v32.986zM261.914 75.51h-17.559V7.266h-6.578v68.812c0 1.546.49 2.808 1.468 3.786.977.979 2.239 1.467 3.785 1.467h20.161c1.545 0 2.816-.488 3.81-1.467.993-.978 1.49-2.24 1.49-3.786V7.266h-6.577V75.51zM302.499 7.266h-18.646c-1.546 0-2.815.49-3.81 1.467-.993.978-1.49 2.24-1.49 3.786v15.002c0 2.052.71 3.928 2.13 5.632l20.445 24.705V75.51H285.13V57.29h-6.578v18.788c0 1.546.497 2.808 1.49 3.786.995.979 2.264 1.467 3.81 1.467h18.646c1.546 0 2.8-.488 3.762-1.467.963-.978 1.445-2.24 1.445-3.786V58.946c0-2.05-.68-3.896-2.035-5.537l-20.54-24.704V13.087h15.997v16.658h6.578V12.52c0-1.546-.482-2.808-1.445-3.786s-2.216-1.467-3.762-1.467zM342.284 7.266v32.56H324.44V7.266h-6.577v74.065h6.577v-35.59h17.843v35.59h6.577V7.266zM151.403 29.18h-22.096v30.493h22.096V32.298zM32.686 29.152v30.577c4.07 0 7.459.457 10.359-1.323 2.899-1.78 4.836-4.006 5.811-6.682.977-2.675 1.64-10.236 1.272-22.572H32.686z"></path><path d="M172.524 0H8.037A8.037 8.037 0 0 0 0 8.037v72.759a8.037 8.037 0 0 0 8.037 8.036h164.487a8.037 8.037 0 0 0 8.037-8.036V8.036A8.037 8.037 0 0 0 172.524 0zM60.963 51.614c-.898 3.886-3.506 8.849-6.63 12.368s-6.564 5.687-10.32 6.504c-3.756.817-12.382.884-25.918.884l.078-11.64h7.514l-4.429-2.016V29.206h-3.795l1.897-11.743h34.874l7.593.04v22.89c.065 4.305-.082 7.836-.864 11.22zm26.7 19.743l-7.817-7.395L90.311 51.93l7.342 7.804-9.99 11.623zm17.277 3.4l-.824-2.2-1.122-2.994-12.552-33.505-16.02 38.726-10.8-4.468 14.594-35.28 2.431-5.894-10.226-.006h-1.895l1.895-11.635h15.014l.932-2.224 3.304-8.01.14.093 10.1 5.809L98.12 17.5h12.87l-1.895 11.658-8.756-.005 15.548 41.503-10.946 4.1zm58.143-43.637v35.686c-.007.015-.007.037-.015.052-.275 1.211-.861 2.17-1.776 2.883-1.263 1.003-3.135 1.545-5.617 1.62h-30.217c-.46.014-.892.014-1.315-.008-1.635-.104-2.972-.542-4.012-1.33-1.293-.973-2.118-2.481-2.474-4.525V19.396l1.79-.29 9.86-1.605v5.186l2.362-5.186h9.75V17.5h13.825c.392-.02.77-.014 1.136.001h.217c1.642.104 2.98.55 4.012 1.345.018.02.034.047.052.069 1.248.968 2.042 2.452 2.384 4.447v4.29c.007.134.018.256.023.392.037.959.037 1.984.015 3.076z"></path>
		</symbol>
	
</svg>
