<svg xmlns="http://www.w3.org/2000/svg" viewBox="0 0 50 50"><path d="M45.5 50h-41C2 50 0 48 0 45.5v-41C0 2 2 0 4.5 0h41C48 0 50 2 50 4.5v41c0 2.5-2 4.5-4.5 4.5z" fill="#41abe1"/><path d="M35.5 17.6s2.1-1.7 2.2-3.1c0 0-1.4 1-3.5 1.3 0 0-2-2.4-5.5-1.5-3.6.9-4.4 4.8-4 6.5 0 0-6.3.1-11.4-5.7 0 0-2.5 4.2 1.8 7.4 0 0-2.1-.1-2.5-.7 0 0-.2 4.4 4.5 5.4 0 0-1.1.4-2.5.2 0 0 1.2 3.6 5.2 3.7 0 0-3.6 3-8.3 2.3 0 0 5 3.6 11.6 2.2.3-.1.7-.1 1-.2 4.3-1.3 7.9-4.1 9.9-8 .1-.2.2-.6.4-.8.9-2 1.5-4.4 1.4-7.2 0 0 2.1-1.4 2.8-2.8 0 .1-1.4.8-3.1 1z" fill="#fff"/></svg>