<?xml version="1.0" encoding="utf-8"?>
<!-- Generator: Adobe Illustrator 21.1.0, SVG Export Plug-In . SVG Version: 6.00 Build 0)  -->
<!DOCTYPE svg PUBLIC "-//W3C//DTD SVG 1.1//EN" "http://www.w3.org/Graphics/SVG/1.1/DTD/svg11.dtd" [
	<!ENTITY st0 "clip-path:url(#SVGID_2_);">
	<!ENTITY st1 "clip-path:url(#SVGID_2_);fill:none;stroke:#000000;stroke-miterlimit:10;">
]>
<svg version="1.1" id="Слой_1" xmlns="http://www.w3.org/2000/svg" xmlns:xlink="http://www.w3.org/1999/xlink" x="0px" y="0px"
	 width="13px" height="18px" viewBox="0 0 13 18" style="enable-background:new 0 0 13 18;" xml:space="preserve">
<g>
	<defs>
		<rect id="SVGID_1_" width="13" height="18"/>
	</defs>
	<clipPath id="SVGID_2_">
		<use xlink:href="#SVGID_1_"  style="overflow:visible;"/>
	</clipPath>
	<path style="&st0;" d="M10.7705,8c0.678,0,1.229,0.551,1.229,1.229v6.542c0,0.677-0.551,1.229-1.229,1.229h-8.542
		c-0.677,0-1.229-0.552-1.229-1.229V9.229C0.9995,8.551,1.5515,8,2.2285,8H10.7705 M10.7705,7h-8.542
		c-1.23,0-2.229,0.998-2.229,2.229v6.542c0,1.231,0.999,2.229,2.229,2.229h8.542c1.231,0,2.229-0.998,2.229-2.229V9.229
		C12.9995,7.998,12.0015,7,10.7705,7"/>
	<path style="&st0;" d="M6.5,1C8.43,1,10,2.57,10,4.5V7H3V4.5C3,2.57,4.57,1,6.5,1 M6.5,0C4.015,0,2,2.015,2,4.5V8h9V4.5
		C11,2.015,8.985,0,6.5,0"/>
	<path style="&st1;" d="M6.5,14.5L6.5,14.5c-0.552,0-1-0.447-1-1v-2c0-0.553,0.448-1,1-1s1,0.447,1,1v2
		C7.5,14.053,7.052,14.5,6.5,14.5z"/>
</g>
</svg>
