<svg version="1.1" id="Layer_1" xmlns="http://www.w3.org/2000/svg" x="0" y="0" viewBox="0 0 50 50" xml:space="preserve"><style>.st0{fill:#464646;opacity:.5}</style><path class="st0" d="M31.3 20.6s1.3-1 1.3-1.9c0 0-.9.6-2.1.8 0 0-1.2-1.5-3.3-.9-2.2.5-2.6 2.9-2.4 3.9 0 0-3.8.1-6.8-3.4 0 0-1.5 2.5 1.1 4.4 0 0-1.3-.1-1.5-.4 0 0-.1 2.6 2.7 3.2 0 0-.7.3-1.5.1 0 0 .7 2.2 3.1 2.2 0 0-2.2 1.8-5 1.4 0 0 3 2.2 6.9 1.3.2-.1.4-.1.6-.1 2.6-.8 4.8-2.4 6-4.8.1-.1.1-.3.3-.5.5-1.2.9-2.6.9-4.3 0 0 1.3-.9 1.7-1.7-.2.1-1 .5-2 .7z"/><path class="st0" d="M35.5 12c1.4 0 2.5 1.1 2.5 2.5v21c0 1.4-1.1 2.5-2.5 2.5h-21c-1.4 0-2.5-1.1-2.5-2.5v-21c0-1.4 1.1-2.5 2.5-2.5h21m0-2h-21C12 10 10 12 10 14.5v21c0 2.5 2 4.5 4.5 4.5h21c2.5 0 4.5-2 4.5-4.5v-21c0-2.5-2-4.5-4.5-4.5z"/></svg>