<svg version="1.1" id="Layer_1" xmlns="http://www.w3.org/2000/svg" x="0" y="0" viewBox="0 0 50 50" xml:space="preserve"><style>.st0{fill:#464646;opacity:.5}</style><path class="st0" d="M29.3 32.6h-8.5c-1.8 0-3.2-1.4-3.2-3.1v-8.8c0-1.7 1.5-3.1 3.2-3.1h8.5c1.7 0 3.2 1.4 3.2 3.1v8.8c0 1.7-1.5 3.1-3.2 3.1zm-8.6-13.7c-1.1 0-1.9.8-1.9 1.9v8.8c0 1 .9 1.9 1.9 1.9h8.5c1.1 0 1.9-.8 1.9-1.9v-8.9c0-1-.9-1.9-1.9-1.9l-8.5.1z"/><path class="st0" d="M25 29c-2.1 0-3.9-1.7-3.9-3.9 0-2.1 1.7-3.9 3.9-3.9 2.1 0 3.9 1.7 3.9 3.9S27.1 29 25 29zm0-6.5c-1.5 0-2.6 1.2-2.6 2.6 0 1.5 1.2 2.6 2.6 2.6 1.5 0 2.6-1.2 2.6-2.6s-1.1-2.6-2.6-2.6zM30.1 21.1c0 .5-.4.9-.9.9s-.9-.4-.9-.9.4-.9.9-.9c.5-.1.9.3.9.9z"/><g><path class="st0" d="M35.5 12c1.4 0 2.5 1.1 2.5 2.5v21c0 1.4-1.1 2.5-2.5 2.5h-21c-1.4 0-2.5-1.1-2.5-2.5v-21c0-1.4 1.1-2.5 2.5-2.5h21m0-2h-21C12 10 10 12 10 14.5v21c0 2.5 2 4.5 4.5 4.5h21c2.5 0 4.5-2 4.5-4.5v-21c0-2.5-2-4.5-4.5-4.5z"/></g></svg>