<svg xmlns="http://www.w3.org/2000/svg" width="279" height="154"><path fill-rule="evenodd" fill-opacity=".2" fill="#8F8F8F" d="M275.232 30.838c-.941 1.064-2.648-.944-4.487-1.031-1.794-.131-.175 1.667-.897 3.685-.733 2.007-8.295 5.011-10.046 5.867-1.718.855-1.795 1.371-1.926 2.994-.087 1.59-1.116 2.742-2.955 4.584-1.838 1.798-2.856 4.419-3.753 6.514-.941 2.139-.941-2.095-1.029-3.805-.131-1.722 1.62-9.344-4.53-8.785-1.926.165-4.487 2.139-5.986 4.234-1.543 2.149.383 1.634 1.499 3.3 1.149 1.711-.175 3.641-.897 5.868-.733 2.237-6.676 7.885-7.485 8.74-.854.812-.427 4.025-.427 5.319 0 1.283-2.134 1.283-3.973 1.919-1.794.647-.383-3.509-.777-4.792-.426-1.283-2.341.647-3.676 2.785-1.325 2.139 1.543 4.365 1.335 8.521-.219 4.157-7.825 5.528-8.941 5.659-1.105.077-2.309 1.886-.514 4.881 1.838 2.95-1.489 3.509-3.458 4.88-1.926 1.37-1.926-.428-2.736-1.579-.766-1.196-1.499 1.458-2.441 2.741-.897 1.284-.383-2.873-.678-4.803-.306-1.875-4.662-5.089-5.69-6.383-1.029-1.283-1.106.779-2.824 2.226-1.751 1.503-4.782 6.942-5.471 8.664-.723 1.711-1.532 1.711-2.266.855-.678-.855-3.545-9.596-5.165-10.889-1.63-1.284-4.968-4.157-7.912-4.365-2.911-.209-3.545-1.503-5.471-2.227-1.926-.723-2.222-1.162-2.222 0 0 1.152 1.707 2.358 3.338 2.227 1.619-.088 3.162 2.226 3.075 4.244-.131 2.051-4.706 3.509-7.912 4.792-3.25 1.284-6.106-4.792-6.927-6.81-.81-2.018-2.43-2.095-2.43-1.152 0 .933 2.649 5.012 3.754 7.151 1.116 2.095 5.089 2.445 7.441 2.445 2.309 0 1.5.636.898 3.17-.602 2.566-6.282 8.949-7.475 10.319-1.247 1.415-.558 7.458-.733 10.024-.208 2.567-2.44 2.567-4.279 4.376-1.794 1.798-2.002 5.308-3.458 8.389-1.367 3.093-4.913 3.949-8.295 4.497-3.337.515-2.44-2.863-2.943-5.56-.515-2.665-3.557-18.94-4.881-21.386-1.28-2.434-1.707-2.993-.897-5.132.809-2.105-3.546-2.741-10.769-1.678-7.178 1.075-9.411-9.596-9.411-13.533 0-3.948 5.986-10.835 6.884-11.91.897-1.074 1.028-1.283 3.25-1.93 2.221-.636 9.367-2.226 12.486-.943 3.119 1.283 1.926 3.093 4.574 4.375 2.605 1.284 5.133-1.074 7.474.209 2.32 1.283 3.94.603 5.396-1.064 1.411-1.721.295-3.005-.219-3.432-.515-.428-4.148-.811-5.385-1.371-1.192-.516-1.63-1.799-2.013-.132-.427 1.722-2.429.692-2.736.132-.295-.516-1.236-1.93-1.915-1.579-.733.296-1.762 1.151-2.954 1.875-1.193.779-.219-1.491.087-2.435.339-.943-4.574-3.597-6.588-3.728-2.002-.088-2.943 2.017-3.764 3.937-.81 1.93-3.929 2.785-5.548 3.641-1.631.855-2.955-1.623-3.338-2.906-.427-1.251.383-2.314.602-4.113.164-1.842 3.25-1.502 5.045-1.415 1.838.132-.088-3.389-1.412-5.012-1.324-1.59 1.018-1.162 2.944-1.678 1.926-.548 4.749-4.068 5.69-4.792.897-.724 1.412-1.502 2.221-1.798.81-.341 3.459 1.151 5.855 1.238 2.441.132 2.955-2.828 3.677-4.748.679-1.93.427-2.917-1.029-3.301-1.411-.428-1.575 1.371-2.823 3.937-1.236 2.533-3.677.647-4.06.088-.383-.516-.678-2.018-1.018-3.433-.306-1.371-1.63-1.02-4.147-3.509-2.528-2.435 2.517-5.955 5.34-9.333 2.867-3.432 10.177-10.966 11.884-11.701 1.708-.768 2.135 1.031 3.853 2.873 1.707 1.799 2.002 1.152 3.545 3.082 1.532 1.886 3.972 2.314 3.972 2.314.81-.209 1.204-.943 2.528.219 1.325 1.196 8.208-2.018 9.105-2.446.941-.427 1.62-1.283 3.371-1.59 1.707-.34 5.69-2.774 6.073-3.849.383-1.075 3.458-1.711 4.06-1.075.602.647 1.62-.296 2.222-2.007.602-1.721 1.926.516 3.25 1.492 1.324.943.219-3.937.219-5.56 0-1.59 3.239-1.371 4.355-1.81 1.116-.428 2.014-2.522 4.06-4.364 2.014-1.799 9.958-2.918 10.812-3.082 6.588-1.163 9.531 6.163 13 7.666 3.458 1.502 11.71 3.344 13.679 3.388 3.973.165 11.458 2.479 12.355 2.994.931.516 6.501 2.994 9.663 2.227 3.119-.725 10.418 5.099 11.666 5.954 1.192.856 4.147 3.301 4.278 4.409.121 1.075-1.926 3.005-2.823 4.036zm-172.236-1.932c-2.353 1.371-2.353 3.422-3.251 6.164-.93 2.785-1.105 4.672-2.221 5.527-1.105.856-.722-1.459-2.353-1.667-1.619-.219-3.545-4.803-5.165-8.444-1.631-3.597-1.324-6.679-.81-8.094.504-1.371.723-3.169-.087-4.321-.81-1.206-1.751-.131-1.412-3.136C87.949 12.369 89.05 4.377 94 3.999l7 3c4.556.869 15.128 1.685 14.569 2.847-.809 1.58-.306 3.85.208 6.591.515 2.786-1.105 3.433-2.517 5.012-1.455 1.59-7.911 6.087-10.264 7.457zM89.624 56.661c-1.247-.296-4.881 1.502-5.69 2.062-.81.515-3.031 1.447-4.487 2.523-1.412 1.074-2.222 1.929-3.765 2.565-1.488.648-1.707 2.018-2.899 4.376-1.204 2.358-3.852 4.584-4.279 6.295-.383 1.667.219 3.685-.898 4.025-1.16.351-1.838-2.358-2.735-3.29-.942-.943-3.973-1.59-7.606-.516-3.677 1.064-1.247 6.811-.733 8.182.514 1.414 3.983-1.371 4.957-2.446 1.029-1.064 1.839.515 1.97 2.018.087 1.502-.646 3.213.766 3.509 1.455.34 1.97.647 2.955 2.874 1.028 2.226 3.677 1.414 5.603 0 1.915-1.371 10.002 1.283 11.238 1.94 1.237.626 3.546 1.054 4.75 2.644 1.236 1.579 6.237 6.075 6.489 6.295.35.219 7.824 1.37 9.882 2.994 2.002 1.59-.942 7.885-1.762 11.054-.81 3.213-3.327 5.231-4.443 6.087-1.105.855-9.444 11.109-10.768 12.546-1.324 1.502-5.559 4.934-6.588 6.218-1.018 1.239-1.193 2.226-.81 3.937.427 1.689.427 2.533-.383 4.025-.854 1.502-.941 3.52-.219 5.099.734 1.634 1.926 1.722.394 2.161-1.499.416-4.968-.659-6.971-4.047-2.057-3.422.471-11.822.296-14.389-.208-2.533 1.707-13.971 2.101-16.625.427-2.654-1.291-4.541-3.042-5.736-1.707-1.162-3.841-6.382-4.87-8.181-.985-1.843-.175-3.729.514-5.659.723-1.93 1.029-3.641.296-4.924-.679-1.229-4.148-3.169-5.559-3.817-1.412-.624-2.561-1.37-3.841-2.653-1.324-1.283-3.043-1.503-6.501-2.271-3.458-.712-5.603-4.967-6.369-6.382-.853-1.371-.853.559-1.16 2.456-.295 1.909-4.136-6.185-7.901-10.637-3.72-4.496-4.016-12.25-3.852-14.608.219-2.314-2.943-7.545-6.577-9.344-3.633-1.842-4.235-5.011-5.351-7.15-1.105-2.139-4.651-2.139-7.003-.22-2.353 1.931-5.691 1.163-9.751-.12-4.06-1.25-2.867-7.885-3.841-10.33-1.029-2.435 2.944-3.806 1.839-6.043-1.117-2.226.164-2.007 1.28-3.082 1.149-1.064 3.37-2.566 3.972-3.422.602-.855 3.546-.646 4.356-.219.82.427 2.615.427 3.852 1.283 1.236.856 6.588 1.93 8.12 2.446 1.499.559 2.615-1.075 3.852-.856 1.236.209 5.296.56 6.281-.219 1.029-.724 2.955.647 2.955.647.809.987 12.179 2.873 14.915 1.93 2.736-.987 4.148-1.59 4.87-.219.69 1.371 4.147-1.711 6.369-2.226 2.221-.56 4.443 3.509 4.147 6.174-.295 2.654-1.105 1.799-1.28 3.422-.219 1.59 1.499 1.59 1.499 2.533 0 .932-1.499.636-2.309 1.371-.853.767-1.751.767-3.086.12-1.28-.636-1.707.22-3.545 1.722-1.795 1.448-1.193 2.435-1.62 5.088-.383 2.666.941 2.019 2.561 3.17 1.63 1.207 2.911 2.358 5.132 2.358 2.265 0 1.664 2.149 1.664 3.521 0 1.403.601 1.195 1.794 1.282 1.248.121 0-3.728 1.248-4.375 1.193-.637.383-2.523-.514-4.365-.942-1.799.514-4.288.382-5.659-.087-1.371 1.325-1.93 2.736-1.492 1.412.428 2.265.636 3.25 1.624 1.029.943.941.811 1.751 2.873.81 2.007 2.309-.131 3.032-1.722.689-1.579 1.718.439 2.648 2.785.897 2.314 1.116 2.962 3.042 5.407 1.926 2.435 3.25 7.875 4.235 9.717 1.018 1.798.208 2.226-.985 1.886zm117.941 40.095s3.545 2.666 4.738 3.949c1.248 1.282 2.057-.735 2.736-1.93.733-1.152 1.838-.943 3.852-1.799 2.046-.856 1.455.088 1.838 1.151.383 1.075-.383 2.786-.383 3.389 0 .68 1.795-1.151 3.119-2.314 1.324-1.195 3.163-.855 3.458.22.307 1.064.088 2.752.307 4.024.208 1.284-.898.944-2.233 1.711-1.324.724-2.342.088-3.458-.131-1.105-.209-.602.987-1.324 1.502-.678.559-3.031-.515-4.662-1.458-1.619-.987-1.838-.768-3.031 0-1.237.734-2.353-.856-3.338-2.27-1.028-1.371-3.162-5.177-4.574-7.414-1.412-2.27 2.648 1.031 2.955 1.37zm31.924-27.417c-2.341 1.414-9.017 5.79-7.693 3.948 0 0 .383-2.314 1.926-3.521 1.5-1.151 3.031-1.37 3.929-3.169.897-1.843.602-1.064 1.543-3.937.897-2.873 1.193-3.082 1.838-4.497.602-1.37 1.412-3.169 1.926-1.798.471 1.371 1.281 3.301.252 4.245-.985.975-1.576 1.282-1.795 3.553-.208 2.225.383 3.805-1.926 5.176zm5.857 38.687c-1.411-.208-2.002-1.195-3.753-.768-1.718.428-2.66-.943-3.94-1.677-1.324-.768.383-1.711-.295-2.139-.734-.428-3.469-.855-3.852-2.358-.427-1.447 2.615-.428 3.206 0 .646.428 2.572 0 4.924.428 2.299.428 1.489 1.162 3.415 2.018 1.926.855 1.751.647 1.619 1.415-.076.723.307 1.579.898 2.226.602.647-.81 1.074-2.222.855zm-21.371 8.096c1.193-.428 2.134-2.654 3.119-3.85 1.029-1.162 2.648-.734 3.25-.515.646.208 1.116-2.062 3.469-2.654 2.298-.647 2.812.165 2.812 1.02 0 .866-.514 1.842.427 1.93 1.029.132 3.765-1.283 4.148-3.169.426-1.931 2.145 2.018 2.867 4.156.678 2.095 3.841 5.231 5.34 6.679 1.543 1.502 1.029 3.432.515 5.099-.515 1.711-1.62 5.242-2.222 6.723-.602 1.503-3.119 2.358-3.852 2.358-.722 0-2.046-.208-3.753-.626-1.719-.438-2.058-2.237-3.338-3.015-.679-.34-2.134-2.095-3.031-2.863-.942-.734-7.956 1.492-9.532 2.347-1.674.867-2.659.79-4.071.22-2.473-.987-.635-4.157-.503-5.527.076-1.415-.941-3.937-.941-5.659 0-1.711 4.059-2.227 5.296-2.654z"/></svg>