<svg xmlns="http://www.w3.org/2000/svg" width="134" height="153"><path fill-rule="evenodd" fill-opacity=".2" fill="#8F8F8F" d="M112.157 149.528c-15.291 7.098-33.504 2.399-42.418-6.708l-.066.062-23.219-24.986c-4.055-4.363-3.824-11.174.515-15.212 3.255-3.029 7.896-3.638 11.723-1.914L34.031 47.946c-2.222-4.76-.177-10.404 4.567-12.606 4.744-2.203 10.392-.129 12.614 4.631l9.985 21.388c-.032-3.307 1.819-6.478 5.006-7.958 4.029-1.87 8.763-.375 11.063 3.32a8.614 8.614 0 0 1 4.32-4.49c4.354-2.021 9.537-.118 11.576 4.251l1.069 2.288a8.624 8.624 0 0 1 4.511-4.963c4.354-2.021 9.536-.118 11.575 4.25l14.374 30.788c.86 1.129 1.649 2.444 2.357 3.961a80.52 80.52 0 0 1 3.273 8.1l2.093 4.483-.662.307c6.196 24.127-6.395 37.705-19.595 43.832zM85.916 44.458l-10.404 1.156a3.677 3.677 0 0 1-4.052-3.235 3.637 3.637 0 0 1 3.212-4.04l10.404-1.156a3.677 3.677 0 0 1 4.052 3.234 3.639 3.639 0 0 1-3.212 4.041zm-20.738-22.27a3.65 3.65 0 0 1-5.15.43 3.668 3.668 0 0 1-.453-5.159l6.728-8.004a3.65 3.65 0 0 1 5.151-.429 3.667 3.667 0 0 1 .453 5.158l-6.729 8.004zm-26.13-3.545a3.677 3.677 0 0 1-3.947-3.362l-.87-10.452a3.639 3.639 0 0 1 3.34-3.936 3.678 3.678 0 0 1 3.947 3.361l.87 10.454a3.638 3.638 0 0 1-3.34 3.935zM23.696 79.109a3.648 3.648 0 0 1-5.091.884 3.67 3.67 0 0 1-.906-5.1l5.993-8.571a3.646 3.646 0 0 1 5.09-.884 3.67 3.67 0 0 1 .907 5.1l-5.993 8.571zM17.97 29.001l-8.018-6.783a3.666 3.666 0 0 1-.447-5.159 3.65 3.65 0 0 1 5.151-.423l8.018 6.784a3.666 3.666 0 0 1 .447 5.159 3.65 3.65 0 0 1-5.151.422zm.378 17.132a3.64 3.64 0 0 1-2.997 4.204L5.023 52.032a3.677 3.677 0 0 1-4.214-3.02 3.64 3.64 0 0 1 2.998-4.203l10.328-1.696a3.677 3.677 0 0 1 4.213 3.02z"/></svg>