<svg version="1.1" id="Layer_1" xmlns="http://www.w3.org/2000/svg" x="0" y="0" viewBox="0 0 50 50" xml:space="preserve"><style>.st0{fill:none;stroke:#a3a3a3;stroke-width:2;stroke-linejoin:round;stroke-miterlimit:10}</style><path class="st0" d="M17.7 33.1zM36.6 26.5c0 5.9-4.8 10.7-10.7 10.7-.8 0-1.6-.1-2.4-.3-1-.2-1.8-.5-2.5-.8-1.7-1.1-2.7-2.1-3.3-3 .3.1.5.2.8.2.3.1.6.1.8.2.3.1.6.1.9.1H22c.3 0 .6-.1.9-.2l.9-.3c.3-.1.5-.2.8-.3.2-.1.3-.2.5-.3.4-.3.9-.5 1.3-.7.2-.1.5-.2.7-.3.3-.1.6-.1.9-.1h.1c.8.3 1.5-.5.9-1.3s-2.1-2-4.3-1.7c-1.7.2-3.2 1.4-5.5.3-.1-.1-.3-.2-.4-.2-.1-.1.5.1.3 0-.4-.2-1.2-.7-1.4-.8l.3.1c-.4-.3-.7-.6-1-.9-.2-.2-.3-.3-.4-.5-.1-.1-.1-.2-.1-.2-.1-.1-.1-.2-.1-.3-.1-.2-.1-.4-.1-.6v-.2c0-.2 0-.4.1-.5 0-.1.1-.3.1-.4 0-.1 0-.1.1-.2v-.1s0-.1.1-.1c0-.1.1-.2.2-.3l.4-.4.1-.1h.1c.3.1.4.2.5.3 0-.1-.1-.2-.2-.4h.1c.4.2.7.4 1.1.6.4.2.5.5.5.5s.1-.1 0-.3c0-.1-.1-.4-.5-.6.2.1.4.2.6.4.1-.3.3-.7.3-1.4 0-.5 0-.6-.1-.7-.1-.2.1-.2.2-.1 0-.1-.1-.3-.1-.4 0-.1.1-.2.3-.3.1 0 .1-.1.2-.1.1-.1.1-.1.2-.1.2-.1.4-.2.7-.4.2-.1.3-.2.5-.2l.6-.3c.1 0 .2-.1.3-.1.1 0 .2-.1.2-.1.1 0 .1-.1.2-.1.4-.2.7-.3.8-.4.1-.1.2-.1.3-.2.1-.1.2-.2.3-.2 0-.1.1-.1.1-.2s.1-.1.1-.2c.2-.3.4-.6.5-1v-.2-.3c0-.2 0-.4-.6-.6-.1 0-.1 0-.2-.1-.1 0-.2 0-.3-.1-.1 0-.2 0-.3-.1h-.1c-.1 0-.3-.1-.4-.1h-.2c-.2 0-.4-.1-.7-.1-.3 0-.6-.1-.9-.1-.1 0-.3 0-.4-.1-.1 0-.2 0-.2-.1 0 0-.1 0-.1-.1-.1-.1-.3-.1-.4-.2l-.2-.2c-.2-.2-.4-.4-.5-.6l-.1-.1c0-.1-.1-.1-.1-.2s-.1-.1-.1-.1c-.1-.1-.1-.3-.1-.4.6-1.5 1.6-2.8 3-3.7.1-.1-.3 0-.2-.1.1-.1.7-.3.8-.3.1-.1-.6-.3-1.2-.3-.6.1-.8.1-1.1.3.1-.1.6-.3.5-.3-.7.1-1.6.5-2.3.9v-.2c-.3.1-1.2.7-1.4 1.1v-.3c-.3.2-.5.4-.7.7-2-.7-3.8-.8-5.3-.4l-.1-.1-.2-.2-.1-.1c3.8-3.4 8.8-5.5 14.3-5.5 1.8 0 3.5.2 5.2.6-.1.2-.1.3-.2.5-.2.7-.3.9-.3 1.1-.2.5-.3 1-.4 1.5-.1.3-.1.5-.1.8-.2 1.8.1 3.7.8 5.4l.3.6c.1.2.2.4.3.5.2.3.4.7.6 1 .2.3.4.5.5.7.5.7 1.1 1.3 1.8 1.9.2.2.5.4.7.6.1.1.3.2.4.3.1.1.3.2.4.3-.1-.1-.2-.2-.4-.3 0 0 0 .1.1.1.1.1.1.2.2.2 0 .1.1.1.1.2s.1.1.1.2c.7 1.6 1.2 3.6 1.2 5.6z"/><path d="M37.9 44.4c-.1 0-.1.1-.2.1v-.1h.2z" fill="none" stroke="#a3a3a3" stroke-width="2" stroke-linejoin="round" stroke-miterlimit="10"/><path class="st0" d="M45.3 35.4c2.2-3.6 3.3-7.6 2.8-11.9v-.2c0-.2-.1-.5-.1-.7v-.1s-.3.4-.7 1v-.3c0-.2-.1-.4-.1-.6v-.2c0-.2-.1-.4-.1-.6 0-.2-.1-.4-.1-.6-.1-.7-.3-1.4-.6-2.1-.1-.2-.2-.5-.3-.7-2.2-6-6.7-10.8-6.7-12.5-.5.5-.8 1.3-1 2.3-4-3.8-5.2-5.6-5.2-6.7 0 0-1.1 1.2-2.1 3.1-.1-.3-.1-.1-.2 0-.2.4-.4.8-.5 1.2-.1.2-.1.3-.2.5s-.2.4-.2.6c-.2.5-.3 1-.4 1.5-.1.3-.1.5-.1.8-.2 1.8.1 3.7.8 5.4l.3.6c.1.2.2.4.3.5.2.3.4.7.6 1 .2.3.4.5.5.7.5.7 1.1 1.3 1.8 1.9.2.2.5.4.7.6.1.1.3.2.4.3.1.1.3.2.4.3-.1-.1-.2-.2-.4-.3 0 0 0 .1.1.1.1.1.1.2.2.2 0 .1.1.1.1.2s.1.1.1.2c1 1.6 1.5 3.6 1.5 5.6 0 5.9-4.8 10.7-10.7 10.7-.8 0-1.6-.1-2.4-.3-1-.2-1.8-.5-2.5-.8-1.7-1.1-2.7-2.1-3.3-3 .3.1.5.2.8.2.3.1.6.1.8.2.3.1.6.1.9.1h1.8c.3 0 .6-.1.9-.2l.9-.3c.3-.1.5-.2.8-.3.2-.1.3-.2.5-.3.4-.3.9-.5 1.3-.7.2-.1.5-.2.7-.3.3-.1.6-.1.9-.1h.1c.8.3 1.5-.5.9-1.3s-2.1-2-4.3-1.7c-1.7.2-3.2 1.4-5.5.3-.1-.1-.3-.2-.4-.2-.1-.1.5.1.3 0-.4-.2-1.2-.7-1.4-.8l.3.1c-.4-.3-.7-.6-1-.9-.2-.2-.3-.3-.4-.5-.1-.1-.1-.2-.1-.2-.1-.1-.1-.2-.1-.3-.1-.2-.1-.4-.1-.6v-.2c0-.2 0-.4.1-.5 0-.1.1-.3.1-.4 0-.1 0-.1.1-.2v-.1s0-.1.1-.1c0-.1.1-.2.2-.3l.4-.4.1-.1h.1c.3.1.4.2.5.3 0-.1-.1-.2-.2-.4h.1c.4.2.7.4 1.1.6.4.2.5.5.5.5s.1-.1 0-.3c0-.1-.1-.4-.5-.6.2.1.4.2.6.4.1-.3.3-.7.3-1.4 0-.5 0-.6-.1-.7-.1-.2.1-.2.2-.1 0-.1-.1-.3-.1-.4 0-.1.1-.2.3-.3.1 0 .1-.1.2-.1.1-.1.1-.1.2-.1.2-.1.4-.2.7-.4.2-.1.3-.2.5-.2l.6-.3c.1 0 .2-.1.3-.1.1 0 .2-.1.2-.1.1 0 .1-.1.2-.1.4-.2.7-.3.8-.4.1-.1.2-.1.3-.2.1-.1.2-.2.3-.2 0-.1.1-.1.1-.2s.1-.1.1-.2c.2-.3.4-.6.5-1v-.2-.3c0-.2 0-.4-.6-.6-.1 0-.1 0-.2-.1-.1 0-.2 0-.3-.1-.1 0-.2 0-.3-.1H24c-.1 0-.3-.1-.4-.1h-.2c-.2 0-.4-.1-.7-.1-.3 0-.6-.1-.9-.1-.1 0-.3 0-.4-.1-.1 0-.2 0-.2-.1 0 0-.1 0-.1-.1-.1-.1-.3-.1-.4-.2l-.2-.2c-.2-.2-.4-.4-.5-.6l-.1-.1c0-.1-.1-.1-.1-.2s-.1-.1-.1-.1c-.1-.1-.1-.3-.1-.4.6-1.5 1.6-2.8 3-3.7.1-.1-.3 0-.2-.1.1-.1.7-.3.8-.3.1-.1-.6-.3-1.2-.3-.6.1-.8.1-1.1.3.1-.1.6-.3.5-.3-.7.1-1.6.5-2.3.9v-.2c-.3.1-1.2.7-1.4 1.1v-.3c-.3.2-.5.4-.7.7-2-.7-3.8-.8-5.3-.4l-.1-.1-.2-.2-.1-.1c-.2-.2-.5-.5-.8-1-.5.3-.5.2-.6.1-.1-.2-.2-.4-.3-.5 0 .1-.1.1-.1.1-.1-.2-.1-.4-.2-.6 0-.1-.1-.2-.1-.3 0-.3-.1-.6-.1-.9 0-.3-.1-.6 0-.8-.1.1-.7.4-1.1 1.4-.1.3-.2.4-.2.5v-.1V7.9c-.1.1-.3.3-.4.5 0 .2-.1.3-.2.6v-.1-.1C6.5 10.2 6.1 12 6 13.2v1c-.6.7-1.1 1.3-1.2 1.6-.8 1.3-1.7 3.2-2.6 6.4.4-.9.8-1.7 1.4-2.4-.8 1.6-1.5 4.2-1.7 8.2.2-.8.4-1.6.7-2.4-.1 2.7.2 6 1.9 9.7 1 2.2 3.3 6.7 8.9 10.1 5.6 3.5 1.9 1.4 5.2 2.5.2.1.5.2.7.3-.1 0-.2-.1-.2-.1 2.2.7 4.5 1 6.8 1 7.5 0 10.3-2.6 10.9-3.3.4-.4.8-.8 1-1.2v-.1s.1 0 .1-.1c3.4-1.6 7.1-4.2 7.5-8v.1c0-.4 0-.8-.1-1.1zm-27.6-2.3z"/></svg>