<svg xmlns="http://www.w3.org/2000/svg" width="89" height="165"><path fill-rule="evenodd" fill-opacity=".2" fill="#8F8F8F" d="M55.577 121.576c-2.241 2.327-5.315 3.49-9.221 3.49-5.343 0-9.466-1.708-12.367-5.127-2.901-3.418-4.352-8.403-4.352-14.952H.595c0 11.893 3.346 21.473 10.04 28.74 6.692 7.269 16.301 11.562 28.827 12.884v17.408h13.702v-17.322c10.743-1.034 19.231-4.653 25.466-10.858 6.233-6.205 9.35-14.22 9.35-24.044 0-5.802-.977-10.772-2.93-14.909-1.954-4.136-4.654-7.756-8.101-10.858-3.447-3.103-7.54-5.874-12.28-8.317-4.74-2.441-9.781-4.796-15.124-7.066-5.343-2.269-9.222-4.654-11.634-7.153-2.413-2.499-3.62-5.874-3.62-10.126 0-4.193 1.048-7.483 3.146-9.867 2.096-2.384 5.041-3.577 8.833-3.577 4.251 0 7.526 1.609 9.824 4.826 2.297 3.218 3.447 7.814 3.447 13.789H88.67c0-10.915-3.003-19.921-9.006-27.017-6.004-7.095-14.263-11.419-24.776-12.97V.022H41.185v18.183c-10.916 1.034-19.648 4.697-26.198 10.988-6.55 6.291-9.824 14.292-9.824 24.001 0 5.803.918 10.744 2.757 14.822 1.838 4.08 4.482 7.67 7.929 10.773 3.447 3.102 7.554 5.832 12.323 8.187 4.768 2.356 9.967 4.683 15.599 6.98 5.63 2.299 9.565 4.74 11.806 7.325 2.241 2.586 3.361 6.149 3.361 10.686 0 4.08-1.12 7.282-3.361 9.609z"/></svg>